<?xml version="1.0" encoding="UTF-8" standalone="no"?>
<svg width="400" height="400">
    <line x1="200" y1="200" x2="300" y2="300"/>
    <g transform="rotate(-135 300 300)">
        <path d="M 300 300 l 10 -3 l 0 6 l -10 -3" fill="black" stroke-linecap="round"/>
    </g>
    <line x1="200" y1="200" x2="300" y2="230"/>
    <g transform="rotate(-163.30075576600638 300 230)">
        <path d="M 300 230 l 10 -3 l 0 6 l -10 -3" fill="black" stroke-linecap="round"/>
    </g>
    <line x1="200" y1="200" x2="210" y2="300"/>
    <g transform="rotate(-95.71059313749963 210 300)">
        <path d="M 210 300 l 10 -3 l 0 6 l -10 -3" fill="black" stroke-linecap="round"/>
    </g>
    <line x1="200" y1="200" x2="300" y2="100"/>
    <g transform="rotate(135 300 100)">
        <path d="M 300 100 l 10 -3 l 0 6 l -10 -3" fill="black" stroke-linecap="round"/>
    </g>
    <line x1="200" y1="200" x2="300" y2="190"/>
    <g transform="rotate(174.28940686250036 300 190)">
        <path d="M 300 190 l 10 -3 l 0 6 l -10 -3" fill="black" stroke-linecap="round"/>
    </g>
    <line x1="200" y1="200" x2="210" y2="10"/>
    <g transform="rotate(93.01278750418335 210 10)">
        <path d="M 210 10 l 10 -3 l 0 6 l -10 -3" fill="black" stroke-linecap="round"/>
    </g>
    <line x1="200" y1="200" x2="100" y2="300"/>
    <g transform="rotate(-45 100 300)">
        <path d="M 100 300 l 10 -3 l 0 6 l -10 -3" fill="black" stroke-linecap="round"/>
    </g>
    <line x1="200" y1="200" x2="100" y2="210"/>
    <g transform="rotate(-5.710593137499643 100 210)">
        <path d="M 100 210 l 10 -3 l 0 6 l -10 -3" fill="black" stroke-linecap="round"/>
    </g>
    <line x1="200" y1="200" x2="100" y2="100"/>
    <g transform="rotate(45 100 100)">
        <path d="M 100 100 l 10 -3 l 0 6 l -10 -3" fill="black" stroke-linecap="round"/>
    </g>
    <line x1="200" y1="200" x2="100" y2="10"/>
    <g transform="rotate(62.24145939893998 100 10)">
        <path d="M 100 10 l 10 -3 l 0 6 l -10 -3" fill="black" stroke-linecap="round"/>
    </g>
</svg>
